<?xml version="1.0" encoding="UTF-8"?>
<svg width="91px" height="33px" viewBox="0 0 91 33" version="1.1" xmlns="http://www.w3.org/2000/svg" xmlns:xlink="http://www.w3.org/1999/xlink">
    <!-- Generator: sketchtool 55.2 (78181) - https://sketchapp.com -->
    <title>E152F887-01ED-4E68-9484-28C14CDE8ABD</title>
    <desc>Created with sketchtool.</desc>
    <defs>
        <polygon id="path-1" points="4.87935657e-05 0.219755556 90.7948231 0.219755556 90.7948231 24.8411778 4.87935657e-05 24.8411778"></polygon>
    </defs>
    <g id="01_Homepage" stroke="none" stroke-width="1" fill="none" fill-rule="evenodd">
        <g id="01.01a_Homepage-(Browser-Products)" transform="translate(-53.000000, -64.000000)">
            <g id="Header" transform="translate(-240.000000, 0.000000)">
                <g id="Nav">
                    <g transform="translate(0.000000, 40.000000)">
                        <g id="Group-7" transform="translate(293.000000, 24.000000)">
                            <polygon id="Fill-1" fill="#FEFEFE" points="30.2646971 32.7802444 60.5296381 32.7802444 60.5296381 30.4203778 30.2646971 30.4203778"></polygon>
                            <polygon id="Fill-2" fill="#00AD4D" points="0.000731903485 32.7802444 30.264941 32.7802444 30.264941 30.4203778 0.000731903485 30.4203778"></polygon>
                            <polygon id="Fill-3" fill="#D92128" points="60.529882 32.7802444 90.7943351 32.7802444 90.7943351 30.4203778 60.529882 30.4203778"></polygon>
                            <g id="Group-6" transform="translate(0.000000, 0.024689)">
                                <mask id="mask-2" fill="white">
                                    <use xlink:href="#path-1"></use>
                                </mask>
                                <g id="Clip-5"></g>
                                <path d="M18.9770863,18.0272889 L19.8997727,5.88451111 L20.9920166,18.0272889 L18.9770863,18.0272889 Z M15.2265689,0.752155556 L13.784719,24.2804222 L18.5001292,24.2523111 L18.7240917,21.7848889 L21.2991721,21.7848889 L21.4958102,24.2523111 L26.6452391,24.2523111 L24.5180836,0.752155556 L15.2265689,0.752155556 Z M80.5509067,10.9606444 C77.1024214,8.90095556 76.2190139,8.0432 76.1838826,6.13677778 C76.1572901,4.56573333 76.5203142,3.66862222 77.5549818,3.69746667 C78.5169469,3.72337778 78.7862874,4.31468889 78.8428879,4.93142222 L78.8428879,8.0718 L84.1604107,8.0718 L84.1604107,5.71682222 C84.1604107,2.77126667 82.2574617,0.219755556 77.6403705,0.219755556 C71.9537244,0.219755556 70.8956359,4.50975556 70.9515046,6.97815556 C71.0229871,10.2026222 71.6792606,11.0733333 72.4619094,11.9134889 C73.2469979,12.7548667 75.2690032,14.1418444 76.688896,14.8018444 C78.6196574,15.6992 79.1224751,16.9060222 79.1224751,18.1392444 C79.1224751,19.4854 78.8707003,20.7467333 77.667207,20.7467333 C76.9955635,20.7467333 76.3256279,20.4658667 76.3256279,19.6254667 L76.3256279,16.6525333 L71.0637298,16.6525333 L71.0637298,18.7836 C71.0637298,22.1491111 73.6380783,24.7020889 77.6403705,24.7020889 C81.6702311,24.7020889 84.5536869,22.6810222 84.6371239,17.9414889 C84.7208048,13.1205556 82.0066627,11.8296444 80.5509067,10.9606444 L80.5509067,10.9606444 Z M85.5332177,24.2523111 L90.7948718,24.2523111 L90.7948718,0.752155556 L85.5332177,0.752155556 L85.5332177,24.2523111 Z M66.3319737,10.9885111 C62.8864161,8.92882222 62.0010568,8.0718 61.9654375,6.16488889 C61.9398209,4.59555556 62.3016252,3.69746667 63.3380005,3.72435556 C64.2999657,3.75075556 64.5695501,4.34108889 64.6254188,4.9588 L64.6254188,8.09991111 L69.9431855,8.09991111 L69.9431855,5.74395556 C69.9431855,2.80035556 68.0404804,0.247377778 63.4207056,0.247377778 C57.7367432,0.247377778 56.6769469,4.5386 56.7330595,7.00675556 C56.8060059,10.2312222 57.4605716,11.1002222 58.2434643,11.9416 C59.027089,12.7837111 61.0508021,14.1706889 62.4694751,14.8306889 C64.4012123,15.7280444 64.904518,16.9321778 64.904518,18.1673556 C64.904518,19.5132667 64.6522552,20.7755778 63.4502257,20.7755778 C62.7785823,20.7755778 62.1064509,20.4954444 62.1064509,19.6543111 L62.1064509,16.6811333 L56.8452847,16.6811333 L56.8452847,18.8124444 C56.8452847,22.1779556 59.4198772,24.7289778 63.4207056,24.7289778 C67.452518,24.7289778 70.3364617,22.7098667 70.4186788,17.9705778 C70.5043115,13.1467111 67.7877298,11.8572667 66.3319737,10.9885111 L66.3319737,10.9885111 Z M50.4360059,19.6804667 C50.4360059,20.3135778 49.8626815,20.7467333 49.1620059,20.7467333 C48.5181748,20.7467333 47.8599496,20.4658667 47.8599496,19.6543111 L47.8599496,0.752155556 L42.5421828,0.752155556 L42.5421828,19.5416222 C42.5421828,21.9535556 45.0345582,24.8411778 49.1195555,24.8411778 C52.9264295,24.8411778 55.698392,22.7942 55.698392,19.5416222 L55.698392,0.752155556 L50.4360059,0.752155556 L50.4360059,19.6804667 Z M35.6017861,9.78217778 L32.8024992,0.752155556 L27.7655394,0.752155556 L27.7655394,24.2523111 L33.0825743,24.2523111 L33.0825743,15.3912 L35.7127914,24.2523111 L40.8070836,24.2523111 L40.8070836,0.752155556 L35.6017861,0.752155556 L35.6017861,9.78217778 Z M12.7354134,4.5386 L12.7354134,0.752155556 L4.87935657e-05,0.752155556 L4.87935657e-05,4.50975556 L7.05340268,4.50975556 L4.87935657e-05,20.2708 L4.87935657e-05,24.2523111 L12.9596198,24.2523111 L12.9596198,20.2417111 L5.79452869,20.2417111 L12.7354134,4.5386 Z" id="Fill-4" fill="#001722" mask="url(#mask-2)"></path>
                            </g>
                        </g>
                    </g>
                </g>
            </g>
        </g>
    </g>
</svg>